<?xml version="1.0" encoding="UTF-8"?>
<svg xmlns="http://www.w3.org/2000/svg" xmlns:xlink="http://www.w3.org/1999/xlink" width="116.25pt" height="30.000001pt" viewBox="0 0 116.25 30.000001" version="1.2">
<defs>
<clipPath id="clip1">
  <path d="M 1.511719 0 L 114.011719 0 L 114.011719 29.03125 L 1.511719 29.03125 Z M 1.511719 0 "/>
</clipPath>
<clipPath id="clip2">
  <path d="M 41.480469 0.0273438 L 74.113281 0.0273438 L 74.113281 28.988281 L 41.480469 28.988281 Z M 41.480469 0.0273438 "/>
</clipPath>
<clipPath id="clip3">
  <path d="M 54.449219 4.722656 L 49.769531 12.9375 L 41.53125 17.605469 L 52.933594 28.976562 L 61.167969 24.308594 L 65.851562 16.09375 L 74.089844 11.425781 L 62.6875 0.0546875 L 54.449219 4.722656 "/>
</clipPath>
<clipPath id="clip4">
  <path d="M 50.472656 22.082031 L 61.621094 22.082031 L 61.621094 28.988281 L 50.472656 28.988281 Z M 50.472656 22.082031 "/>
</clipPath>
<clipPath id="clip5">
  <path d="M 54.449219 4.722656 L 49.769531 12.9375 L 41.53125 17.605469 L 52.933594 28.976562 L 61.167969 24.308594 L 65.851562 16.09375 L 74.089844 11.425781 L 62.6875 0.0546875 L 54.449219 4.722656 "/>
</clipPath>
<clipPath id="clip6">
  <path d="M 56.40625 15.449219 L 66.117188 15.449219 L 66.117188 25.132812 L 56.40625 25.132812 Z M 56.40625 15.449219 "/>
</clipPath>
<clipPath id="clip7">
  <path d="M 54.449219 4.722656 L 49.769531 12.9375 L 41.53125 17.605469 L 52.933594 28.976562 L 61.167969 24.308594 L 65.851562 16.09375 L 74.089844 11.425781 L 62.6875 0.0546875 L 54.449219 4.722656 "/>
</clipPath>
<clipPath id="clip8">
  <path d="M 59.105469 8.902344 L 69.984375 8.902344 L 69.984375 19.304688 L 59.105469 19.304688 Z M 59.105469 8.902344 "/>
</clipPath>
<clipPath id="clip9">
  <path d="M 54.449219 4.722656 L 49.769531 12.9375 L 41.53125 17.605469 L 52.933594 28.976562 L 61.167969 24.308594 L 65.851562 16.09375 L 74.089844 11.425781 L 62.6875 0.0546875 L 54.449219 4.722656 "/>
</clipPath>
<clipPath id="clip10">
  <path d="M 62 3.074219 L 74.113281 3.074219 L 74.113281 12.847656 L 62 12.847656 Z M 62 3.074219 "/>
</clipPath>
<clipPath id="clip11">
  <path d="M 54.449219 4.722656 L 49.769531 12.9375 L 41.53125 17.605469 L 52.933594 28.976562 L 61.167969 24.308594 L 65.851562 16.09375 L 74.089844 11.425781 L 62.6875 0.0546875 L 54.449219 4.722656 "/>
</clipPath>
<clipPath id="clip12">
  <path d="M 55.597656 12.222656 L 58.207031 12.222656 L 58.207031 14.820312 L 55.597656 14.820312 Z M 55.597656 12.222656 "/>
</clipPath>
<clipPath id="clip13">
  <path d="M 54.449219 4.722656 L 49.769531 12.9375 L 41.53125 17.605469 L 52.933594 28.976562 L 61.167969 24.308594 L 65.851562 16.09375 L 74.089844 11.425781 L 62.6875 0.0546875 L 54.449219 4.722656 "/>
</clipPath>
<clipPath id="clip14">
  <path d="M 58.296875 2.539062 L 64.410156 2.539062 L 64.410156 11.324219 L 58.296875 11.324219 Z M 58.296875 2.539062 "/>
</clipPath>
<clipPath id="clip15">
  <path d="M 54.449219 4.722656 L 49.769531 12.9375 L 41.53125 17.605469 L 52.933594 28.976562 L 61.167969 24.308594 L 65.851562 16.09375 L 74.089844 11.425781 L 62.6875 0.0546875 L 54.449219 4.722656 "/>
</clipPath>
<clipPath id="clip16">
  <path d="M 41.480469 15 L 48.855469 15 L 48.855469 20.558594 L 41.480469 20.558594 Z M 41.480469 15 "/>
</clipPath>
<clipPath id="clip17">
  <path d="M 54.449219 4.722656 L 49.769531 12.9375 L 41.53125 17.605469 L 52.933594 28.976562 L 61.167969 24.308594 L 65.851562 16.09375 L 74.089844 11.425781 L 62.6875 0.0546875 L 54.449219 4.722656 "/>
</clipPath>
<clipPath id="clip18">
  <path d="M 45.886719 18.496094 L 54.070312 18.496094 L 54.070312 24 L 45.886719 24 Z M 45.886719 18.496094 "/>
</clipPath>
<clipPath id="clip19">
  <path d="M 54.449219 4.722656 L 49.769531 12.9375 L 41.53125 17.605469 L 52.933594 28.976562 L 61.167969 24.308594 L 65.851562 16.09375 L 74.089844 11.425781 L 62.6875 0.0546875 L 54.449219 4.722656 "/>
</clipPath>
<clipPath id="clip20">
  <path d="M 52.722656 0.0273438 L 58.296875 0.0273438 L 58.296875 2.628906 L 52.722656 2.628906 Z M 52.722656 0.0273438 "/>
</clipPath>
<clipPath id="clip21">
  <path d="M 54.449219 4.722656 L 49.769531 12.9375 L 41.53125 17.605469 L 52.933594 28.976562 L 61.167969 24.308594 L 65.851562 16.09375 L 74.089844 11.425781 L 62.6875 0.0546875 L 54.449219 4.722656 "/>
</clipPath>
<clipPath id="clip22">
  <path d="M 56 0.0273438 L 63.421875 0.0273438 L 63.421875 6.570312 L 56 6.570312 Z M 56 0.0273438 "/>
</clipPath>
<clipPath id="clip23">
  <path d="M 54.449219 4.722656 L 49.769531 12.9375 L 41.53125 17.605469 L 52.933594 28.976562 L 61.167969 24.308594 L 65.851562 16.09375 L 74.089844 11.425781 L 62.6875 0.0546875 L 54.449219 4.722656 "/>
</clipPath>
<clipPath id="clip24">
  <path d="M 49.753906 2.359375 L 53.621094 2.359375 L 53.621094 9.261719 L 49.753906 9.261719 Z M 49.753906 2.359375 "/>
</clipPath>
<clipPath id="clip25">
  <path d="M 54.449219 4.722656 L 49.769531 12.9375 L 41.53125 17.605469 L 52.933594 28.976562 L 61.167969 24.308594 L 65.851562 16.09375 L 74.089844 11.425781 L 62.6875 0.0546875 L 54.449219 4.722656 "/>
</clipPath>
<clipPath id="clip26">
  <path d="M 53.351562 4.957031 L 59.554688 4.957031 L 59.554688 11.59375 L 53.351562 11.59375 Z M 53.351562 4.957031 "/>
</clipPath>
<clipPath id="clip27">
  <path d="M 54.449219 4.722656 L 49.769531 12.9375 L 41.53125 17.605469 L 52.933594 28.976562 L 61.167969 24.308594 L 65.851562 16.09375 L 74.089844 11.425781 L 62.6875 0.0546875 L 54.449219 4.722656 "/>
</clipPath>
<clipPath id="clip28">
  <path d="M 51.191406 11.863281 L 54.878906 11.863281 L 54.878906 19.753906 L 51.191406 19.753906 Z M 51.191406 11.863281 "/>
</clipPath>
<clipPath id="clip29">
  <path d="M 54.449219 4.722656 L 49.769531 12.9375 L 41.53125 17.605469 L 52.933594 28.976562 L 61.167969 24.308594 L 65.851562 16.09375 L 74.089844 11.425781 L 62.6875 0.0546875 L 54.449219 4.722656 "/>
</clipPath>
<clipPath id="clip30">
  <path d="M 46.515625 9.171875 L 51.28125 9.171875 L 51.28125 16.164062 L 46.515625 16.164062 Z M 46.515625 9.171875 "/>
</clipPath>
<clipPath id="clip31">
  <path d="M 54.449219 4.722656 L 49.769531 12.9375 L 41.53125 17.605469 L 52.933594 28.976562 L 61.167969 24.308594 L 65.851562 16.09375 L 74.089844 11.425781 L 62.6875 0.0546875 L 54.449219 4.722656 "/>
</clipPath>
<clipPath id="clip32">
  <path d="M 49.484375 10.605469 L 53.082031 10.605469 L 53.082031 17.332031 L 49.484375 17.332031 Z M 49.484375 10.605469 "/>
</clipPath>
<clipPath id="clip33">
  <path d="M 54.449219 4.722656 L 49.769531 12.9375 L 41.53125 17.605469 L 52.933594 28.976562 L 61.167969 24.308594 L 65.851562 16.09375 L 74.089844 11.425781 L 62.6875 0.0546875 L 54.449219 4.722656 "/>
</clipPath>
<clipPath id="clip34">
  <path d="M 54.25 0.0273438 L 60.273438 0.0273438 L 60.273438 3.792969 L 54.25 3.792969 Z M 54.25 0.0273438 "/>
</clipPath>
<clipPath id="clip35">
  <path d="M 54.449219 4.722656 L 49.769531 12.9375 L 41.53125 17.605469 L 52.933594 28.976562 L 61.167969 24.308594 L 65.851562 16.09375 L 74.089844 11.425781 L 62.6875 0.0546875 L 54.449219 4.722656 "/>
</clipPath>
<clipPath id="clip36">
  <path d="M 51.550781 3.792969 L 55.328125 3.792969 L 55.328125 10.425781 L 51.550781 10.425781 Z M 51.550781 3.792969 "/>
</clipPath>
<clipPath id="clip37">
  <path d="M 54.449219 4.722656 L 49.769531 12.9375 L 41.53125 17.605469 L 52.933594 28.976562 L 61.167969 24.308594 L 65.851562 16.09375 L 74.089844 11.425781 L 62.6875 0.0546875 L 54.449219 4.722656 "/>
</clipPath>
<clipPath id="clip38">
  <path d="M 43.371094 17.421875 L 50.5625 17.421875 L 50.5625 22.171875 L 43.371094 22.171875 Z M 43.371094 17.421875 "/>
</clipPath>
<clipPath id="clip39">
  <path d="M 54.449219 4.722656 L 49.769531 12.9375 L 41.53125 17.605469 L 52.933594 28.976562 L 61.167969 24.308594 L 65.851562 16.09375 L 74.089844 11.425781 L 62.6875 0.0546875 L 54.449219 4.722656 "/>
</clipPath>
<clipPath id="clip40">
  <path d="M 49.304688 8.277344 L 59.105469 8.277344 L 59.105469 24.773438 L 49.304688 24.773438 Z M 49.304688 8.277344 "/>
</clipPath>
<clipPath id="clip41">
  <path d="M 54.449219 4.722656 L 49.769531 12.9375 L 41.53125 17.605469 L 52.933594 28.976562 L 61.167969 24.308594 L 65.851562 16.09375 L 74.089844 11.425781 L 62.6875 0.0546875 L 54.449219 4.722656 "/>
</clipPath>
<clipPath id="clip42">
  <path d="M 41.453125 0 L 74.113281 0 L 74.113281 29.03125 L 41.453125 29.03125 Z M 41.453125 0 "/>
</clipPath>
</defs>
<g id="surface1">
<g clip-path="url(#clip1)" clip-rule="nonzero">
<path style=" stroke:none;fill-rule:nonzero;fill:rgb(100%,100%,100%);fill-opacity:1;" d="M 1.511719 0 L 114.738281 0 L 114.738281 36.289062 L 1.511719 36.289062 Z M 1.511719 0 "/>
<path style=" stroke:none;fill-rule:nonzero;fill:rgb(100%,100%,100%);fill-opacity:1;" d="M 1.511719 0 L 114.011719 0 L 114.011719 29.03125 L 1.511719 29.03125 Z M 1.511719 0 "/>
<path style=" stroke:none;fill-rule:nonzero;fill:rgb(100%,100%,100%);fill-opacity:1;" d="M 1.511719 0 L 114.011719 0 L 114.011719 29.03125 L 1.511719 29.03125 Z M 1.511719 0 "/>
</g>
<g clip-path="url(#clip2)" clip-rule="nonzero">
<g clip-path="url(#clip3)" clip-rule="nonzero">
<path style=" stroke:none;fill-rule:nonzero;fill:rgb(100%,100%,100%);fill-opacity:1;" d="M 74.3125 11.648438 L 54.933594 30.976562 L 41.304688 17.382812 L 60.683594 -1.941406 L 74.3125 11.648438 "/>
</g>
</g>
<g clip-path="url(#clip4)" clip-rule="nonzero">
<g clip-path="url(#clip5)" clip-rule="nonzero">
<path style=" stroke:none;fill-rule:nonzero;fill:rgb(76.469421%,73.329163%,62.348938%);fill-opacity:1;" d="M 61.613281 25.871094 L 55.792969 31.058594 L 50.476562 25.152344 L 55.902344 22.105469 L 61.613281 25.871094 "/>
</g>
</g>
<g clip-path="url(#clip6)" clip-rule="nonzero">
<g clip-path="url(#clip7)" clip-rule="nonzero">
<path style=" stroke:none;fill-rule:nonzero;fill:rgb(30.979919%,71.369934%,31.369019%);fill-opacity:1;" d="M 56.460938 16.125 L 56.699219 20.902344 L 63.046875 25.082031 L 66.101562 20.472656 L 58.609375 15.535156 C 58.011719 16.042969 57.222656 16.253906 56.460938 16.125 "/>
</g>
</g>
<g clip-path="url(#clip8)" clip-rule="nonzero">
<g clip-path="url(#clip9)" clip-rule="nonzero">
<path style=" stroke:none;fill-rule:nonzero;fill:rgb(30.979919%,71.369934%,31.369019%);fill-opacity:1;" d="M 59.109375 12.128906 C 59.527344 12.777344 59.640625 13.585938 59.40625 14.332031 L 66.898438 19.269531 L 69.953125 14.660156 L 61.238281 8.914062 L 59.109375 12.128906 "/>
</g>
</g>
<g clip-path="url(#clip10)" clip-rule="nonzero">
<g clip-path="url(#clip11)" clip-rule="nonzero">
<path style=" stroke:none;fill-rule:nonzero;fill:rgb(76.469421%,73.329163%,62.348938%);fill-opacity:1;" d="M 74.769531 9.890625 L 69.851562 12.765625 L 62.035156 7.710938 L 65.089844 3.101562 L 74.769531 9.890625 "/>
</g>
</g>
<g clip-path="url(#clip12)" clip-rule="nonzero">
<g clip-path="url(#clip13)" clip-rule="nonzero">
<path style=" stroke:none;fill-rule:nonzero;fill:rgb(76.469421%,73.329163%,62.348938%);fill-opacity:1;" d="M 57.601562 12.503906 C 58.179688 12.886719 58.339844 13.664062 57.957031 14.242188 C 57.574219 14.816406 56.792969 14.976562 56.214844 14.59375 C 55.632812 14.214844 55.476562 13.433594 55.859375 12.859375 C 56.242188 12.28125 57.019531 12.121094 57.601562 12.503906 "/>
</g>
</g>
<g clip-path="url(#clip14)" clip-rule="nonzero">
<g clip-path="url(#clip15)" clip-rule="nonzero">
<path style=" stroke:none;fill-rule:nonzero;fill:rgb(30.979919%,71.369934%,31.369019%);fill-opacity:1;" d="M 64.1875 2.632812 C 64.332031 2.726562 64.371094 2.914062 64.28125 3.050781 L 58.886719 11.1875 C 58.796875 11.324219 58.609375 11.359375 58.46875 11.265625 C 58.324219 11.171875 58.28125 10.984375 58.371094 10.847656 L 63.765625 2.710938 C 63.855469 2.574219 64.046875 2.539062 64.1875 2.632812 "/>
</g>
</g>
<g clip-path="url(#clip16)" clip-rule="nonzero">
<g clip-path="url(#clip17)" clip-rule="nonzero">
<path style=" stroke:none;fill-rule:nonzero;fill:rgb(76.469421%,73.329163%,62.348938%);fill-opacity:1;" d="M 48.804688 17.429688 L 45.164062 15.03125 L 40.542969 18.605469 L 43.378906 20.472656 C 44.1875 20.53125 46.8125 20.460938 48.804688 17.429688 "/>
</g>
</g>
<g clip-path="url(#clip18)" clip-rule="nonzero">
<g clip-path="url(#clip19)" clip-rule="nonzero">
<path style=" stroke:none;fill-rule:nonzero;fill:rgb(76.469421%,73.329163%,62.348938%);fill-opacity:1;" d="M 45.949219 22.164062 L 45.945312 22.164062 L 48.722656 23.996094 L 54.050781 20.886719 L 50.511719 18.554688 C 50.503906 18.5625 50.5 18.574219 50.492188 18.582031 C 49.03125 20.785156 47.269531 21.746094 45.949219 22.164062 "/>
</g>
</g>
<g clip-path="url(#clip20)" clip-rule="nonzero">
<g clip-path="url(#clip21)" clip-rule="nonzero">
<path style=" stroke:none;fill-rule:nonzero;fill:rgb(76.469421%,73.329163%,62.348938%);fill-opacity:1;" d="M 58.289062 -1.382812 L 56.726562 -2.414062 L 52.785156 1.613281 L 54.292969 2.609375 C 55.355469 0.945312 56.675781 -0.375 58.289062 -1.382812 "/>
</g>
</g>
<g clip-path="url(#clip22)" clip-rule="nonzero">
<g clip-path="url(#clip23)" clip-rule="nonzero">
<path style=" stroke:none;fill-rule:nonzero;fill:rgb(76.469421%,73.329163%,62.348938%);fill-opacity:1;" d="M 56 3.734375 L 60.28125 6.554688 L 63.335938 1.945312 L 60.199219 -0.121094 C 58.304688 0.851562 56.984375 2.1875 56 3.734375 "/>
</g>
</g>
<g clip-path="url(#clip24)" clip-rule="nonzero">
<g clip-path="url(#clip25)" clip-rule="nonzero">
<path style=" stroke:none;fill-rule:nonzero;fill:rgb(76.469421%,73.329163%,62.348938%);fill-opacity:1;" d="M 51.332031 2.386719 L 49.816406 8.011719 L 51.628906 9.203125 C 52.121094 7.390625 52.695312 5.574219 53.574219 3.863281 L 51.332031 2.386719 "/>
</g>
</g>
<g clip-path="url(#clip26)" clip-rule="nonzero">
<g clip-path="url(#clip27)" clip-rule="nonzero">
<path style=" stroke:none;fill-rule:nonzero;fill:rgb(76.469421%,73.329163%,62.348938%);fill-opacity:1;" d="M 55.207031 11.5625 C 55.800781 11.054688 56.59375 10.84375 57.355469 10.972656 L 59.484375 7.757812 L 55.292969 4.996094 C 54.457031 6.675781 53.917969 8.527344 53.425781 10.390625 L 55.207031 11.5625 "/>
</g>
</g>
<g clip-path="url(#clip28)" clip-rule="nonzero">
<g clip-path="url(#clip29)" clip-rule="nonzero">
<path style=" stroke:none;fill-rule:nonzero;fill:rgb(76.469421%,73.329163%,62.348938%);fill-opacity:1;" d="M 51.230469 17.296875 L 54.851562 19.683594 L 54.707031 14.96875 C 54.289062 14.320312 54.171875 13.511719 54.40625 12.765625 L 53.042969 11.871094 C 52.550781 13.785156 52.0625 15.59375 51.292969 17.175781 C 51.273438 17.214844 51.25 17.253906 51.230469 17.296875 "/>
</g>
</g>
<g clip-path="url(#clip30)" clip-rule="nonzero">
<g clip-path="url(#clip31)" clip-rule="nonzero">
<path style=" stroke:none;fill-rule:nonzero;fill:rgb(76.469421%,73.329163%,62.348938%);fill-opacity:1;" d="M 51.238281 10.679688 L 49.019531 9.214844 L 46.570312 14.226562 L 49.507812 16.160156 C 50.210938 14.671875 50.679688 12.859375 51.171875 10.941406 C 51.195312 10.855469 51.21875 10.765625 51.238281 10.679688 "/>
</g>
</g>
<g clip-path="url(#clip32)" clip-rule="nonzero">
<g clip-path="url(#clip33)" clip-rule="nonzero">
<path style=" stroke:none;fill-rule:nonzero;fill:rgb(32.159424%,69.799805%,71.369934%);fill-opacity:1;" d="M 51.238281 10.679688 C 51.21875 10.765625 51.195312 10.855469 51.171875 10.941406 C 50.679688 12.859375 50.210938 14.671875 49.507812 16.160156 L 51.230469 17.296875 C 51.25 17.253906 51.273438 17.214844 51.292969 17.175781 C 52.0625 15.59375 52.550781 13.785156 53.042969 11.871094 L 51.238281 10.679688 "/>
</g>
</g>
<g clip-path="url(#clip34)" clip-rule="nonzero">
<g clip-path="url(#clip35)" clip-rule="nonzero">
<path style=" stroke:none;fill-rule:nonzero;fill:rgb(32.159424%,69.799805%,71.369934%);fill-opacity:1;" d="M 58.289062 -1.382812 C 56.675781 -0.375 55.355469 0.945312 54.292969 2.613281 L 56 3.738281 C 56.980469 2.1875 58.308594 0.851562 60.203125 -0.121094 L 58.289062 -1.382812 "/>
</g>
</g>
<g clip-path="url(#clip36)" clip-rule="nonzero">
<g clip-path="url(#clip37)" clip-rule="nonzero">
<path style=" stroke:none;fill-rule:nonzero;fill:rgb(32.159424%,69.799805%,71.369934%);fill-opacity:1;" d="M 53.570312 3.871094 C 52.695312 5.574219 52.117188 7.390625 51.628906 9.203125 L 53.429688 10.390625 C 53.914062 8.53125 54.457031 6.679688 55.289062 5 L 53.570312 3.871094 "/>
</g>
</g>
<g clip-path="url(#clip38)" clip-rule="nonzero">
<g clip-path="url(#clip39)" clip-rule="nonzero">
<path style=" stroke:none;fill-rule:nonzero;fill:rgb(32.159424%,69.799805%,71.369934%);fill-opacity:1;" d="M 43.378906 20.472656 L 45.945312 22.164062 L 45.949219 22.164062 C 47.269531 21.746094 49.03125 20.785156 50.492188 18.582031 C 50.496094 18.574219 50.503906 18.566406 50.507812 18.558594 L 48.800781 17.433594 C 46.808594 20.464844 44.183594 20.53125 43.378906 20.472656 "/>
</g>
</g>
<g clip-path="url(#clip40)" clip-rule="nonzero">
<g clip-path="url(#clip41)" clip-rule="nonzero">
<path style=" stroke:none;fill-rule:nonzero;fill:rgb(98.039246%,73.329163%,9.408569%);fill-opacity:1;" d="M 55.996094 21.242188 L 55.890625 21.296875 C 53.71875 22.414062 50.179688 24.328125 49.925781 24.710938 L 49.601562 24.5 C 49.976562 23.9375 54.453125 21.601562 55.609375 21.007812 L 55.597656 14.929688 L 55.871094 15.058594 C 55.941406 15.089844 57.597656 15.835938 58.417969 14.390625 C 58.753906 13.792969 58.785156 13.214844 58.507812 12.710938 C 58.191406 12.140625 57.503906 11.75 56.757812 11.714844 C 55.921875 11.675781 55.28125 12.394531 55.273438 12.402344 L 55.164062 12.527344 L 49.371094 8.683594 L 49.582031 8.363281 L 55.101562 12.027344 C 55.355469 11.789062 55.980469 11.292969 56.777344 11.328125 C 57.652344 11.367188 58.464844 11.839844 58.847656 12.523438 C 59.1875 13.140625 59.15625 13.871094 58.753906 14.578125 C 58.640625 14.78125 58.511719 14.949219 58.375 15.082031 C 57.582031 15.875 56.488281 15.667969 55.984375 15.507812 L 55.996094 21.242188 "/>
</g>
</g>
<g clip-path="url(#clip42)" clip-rule="nonzero">
<path style=" stroke:none;fill-rule:nonzero;fill:rgb(48.239136%,45.489502%,36.859131%);fill-opacity:1;" d="M 54.449219 4.722656 L 54.410156 4.703125 L 49.734375 12.90625 L 41.457031 17.597656 L 52.925781 29.03125 L 61.203125 24.339844 L 65.882812 16.125 L 74.160156 11.433594 L 62.695312 0 L 54.417969 4.691406 L 54.410156 4.703125 L 54.449219 4.722656 L 54.472656 4.761719 L 62.679688 0.109375 L 74.015625 11.414062 L 65.820312 16.0625 L 61.136719 24.277344 L 52.941406 28.921875 L 41.605469 17.617188 L 49.800781 12.972656 L 54.488281 4.746094 L 54.449219 4.722656 L 54.472656 4.761719 L 54.449219 4.722656 "/>
</g>
<path style=" stroke:none;fill-rule:nonzero;fill:rgb(91.369629%,91.369629%,91.369629%);fill-opacity:1;" d="M 61.136719 24.277344 L 59.804688 22.945312 L 61.324219 23.949219 L 61.136719 24.277344 M 56.644531 19.796875 L 55.992188 19.144531 L 55.984375 15.507812 C 56.207031 15.578125 56.539062 15.65625 56.914062 15.65625 C 57.390625 15.65625 57.929688 15.527344 58.375 15.082031 C 58.511719 14.949219 58.640625 14.78125 58.753906 14.578125 C 59.15625 13.871094 59.1875 13.140625 58.847656 12.523438 C 58.464844 11.839844 57.652344 11.367188 56.777344 11.328125 C 56.75 11.328125 56.722656 11.328125 56.695312 11.328125 C 55.9375 11.328125 55.347656 11.796875 55.101562 12.027344 L 52.269531 10.144531 C 52.175781 9.882812 52.074219 9.636719 51.964844 9.425781 L 53.425781 10.390625 L 55.207031 11.5625 C 55.683594 11.152344 56.292969 10.9375 56.910156 10.9375 C 57.058594 10.9375 57.207031 10.949219 57.355469 10.972656 L 58.691406 8.953125 L 59.253906 9.515625 L 58.371094 10.847656 C 58.28125 10.984375 58.324219 11.171875 58.46875 11.265625 C 58.519531 11.300781 58.582031 11.320312 58.640625 11.320312 C 58.738281 11.320312 58.832031 11.273438 58.886719 11.1875 L 59.703125 9.960938 L 60.210938 10.46875 L 59.109375 12.128906 C 59.527344 12.777344 59.640625 13.585938 59.40625 14.332031 L 64.785156 17.875 L 64.066406 19.132812 L 58.609375 15.535156 C 58.128906 15.945312 57.519531 16.160156 56.90625 16.160156 C 56.757812 16.160156 56.609375 16.148438 56.460938 16.125 L 56.644531 19.796875 M 55.605469 18.757812 L 54.796875 17.953125 L 54.707031 14.96875 C 54.289062 14.320312 54.171875 13.511719 54.40625 12.765625 L 53.042969 11.871094 L 52.667969 11.621094 C 52.601562 11.320312 52.53125 11.019531 52.449219 10.726562 L 55.164062 12.527344 L 55.273438 12.402344 C 55.28125 12.394531 55.886719 11.710938 56.695312 11.710938 C 56.714844 11.710938 56.738281 11.714844 56.757812 11.714844 C 57.503906 11.75 58.191406 12.140625 58.507812 12.710938 C 58.785156 13.214844 58.753906 13.792969 58.417969 14.390625 C 58.015625 15.09375 57.417969 15.277344 56.902344 15.277344 C 56.359375 15.277344 55.910156 15.074219 55.871094 15.058594 L 55.597656 14.929688 L 55.605469 18.757812 M 56.90625 12.296875 C 56.5 12.296875 56.101562 12.492188 55.859375 12.859375 C 55.476562 13.433594 55.632812 14.214844 56.214844 14.59375 C 56.425781 14.734375 56.667969 14.804688 56.90625 14.804688 C 57.3125 14.804688 57.714844 14.605469 57.957031 14.242188 C 58.339844 13.664062 58.179688 12.886719 57.601562 12.503906 C 57.386719 12.363281 57.144531 12.296875 56.90625 12.296875 "/>
<path style=" stroke:none;fill-rule:nonzero;fill:rgb(28.239441%,65.098572%,28.62854%);fill-opacity:1;" d="M 61.324219 23.949219 L 59.804688 22.945312 L 56.644531 19.796875 L 56.460938 16.125 C 56.609375 16.148438 56.757812 16.160156 56.90625 16.160156 C 57.519531 16.160156 58.128906 15.945312 58.609375 15.535156 L 64.066406 19.132812 L 61.324219 23.949219 "/>
<path style=" stroke:none;fill-rule:nonzero;fill:rgb(28.239441%,65.098572%,28.62854%);fill-opacity:1;" d="M 64.785156 17.875 L 59.40625 14.332031 C 59.640625 13.585938 59.527344 12.777344 59.109375 12.128906 L 60.210938 10.46875 L 60.621094 10.878906 C 60.472656 11.730469 60.730469 12.636719 61.390625 13.292969 C 61.875 13.777344 63.011719 14.125 64.117188 14.363281 L 65.820312 16.0625 L 64.785156 17.875 "/>
<path style=" stroke:none;fill-rule:nonzero;fill:rgb(69.799805%,67.059326%,57.249451%);fill-opacity:1;" d="M 56.90625 14.804688 C 56.667969 14.804688 56.425781 14.734375 56.214844 14.59375 C 55.632812 14.214844 55.476562 13.433594 55.859375 12.859375 C 56.101562 12.492188 56.5 12.296875 56.90625 12.296875 C 57.144531 12.296875 57.386719 12.363281 57.601562 12.503906 C 58.179688 12.886719 58.339844 13.664062 57.957031 14.242188 C 57.714844 14.605469 57.3125 14.804688 56.90625 14.804688 "/>
<path style=" stroke:none;fill-rule:nonzero;fill:rgb(28.239441%,65.098572%,28.62854%);fill-opacity:1;" d="M 58.640625 11.320312 C 58.582031 11.320312 58.519531 11.300781 58.46875 11.265625 C 58.324219 11.171875 58.28125 10.984375 58.371094 10.847656 L 59.253906 9.515625 L 59.703125 9.960938 L 58.886719 11.1875 C 58.832031 11.273438 58.738281 11.320312 58.640625 11.320312 "/>
<path style=" stroke:none;fill-rule:nonzero;fill:rgb(69.799805%,67.059326%,57.249451%);fill-opacity:1;" d="M 55.207031 11.5625 L 53.425781 10.390625 L 53.429688 10.390625 C 53.878906 8.671875 54.375 6.960938 55.105469 5.386719 C 55.105469 5.386719 55.105469 5.382812 55.109375 5.378906 L 58.691406 8.953125 L 57.355469 10.972656 C 57.207031 10.949219 57.058594 10.9375 56.910156 10.9375 C 56.292969 10.9375 55.683594 11.152344 55.207031 11.5625 "/>
<path style=" stroke:none;fill-rule:nonzero;fill:rgb(69.799805%,67.059326%,57.249451%);fill-opacity:1;" d="M 54.796875 17.953125 L 52.078125 15.242188 C 52.195312 14.894531 52.308594 14.542969 52.414062 14.183594 C 52.820312 14.238281 53.082031 14.261719 53.082031 14.261719 C 53.082031 14.261719 53.011719 13.53125 52.855469 12.601562 C 52.917969 12.359375 52.980469 12.113281 53.042969 11.871094 L 54.40625 12.765625 C 54.171875 13.511719 54.289062 14.320312 54.707031 14.96875 L 54.796875 17.953125 "/>
<path style=" stroke:none;fill-rule:nonzero;fill:rgb(29.40979%,63.919067%,65.098572%);fill-opacity:1;" d="M 52.078125 15.242188 L 50.746094 13.914062 C 51.378906 14.039062 51.980469 14.128906 52.414062 14.183594 C 52.308594 14.542969 52.195312 14.894531 52.078125 15.242188 M 52.855469 12.601562 C 52.800781 12.289062 52.742188 11.957031 52.667969 11.621094 L 53.042969 11.871094 C 52.980469 12.113281 52.917969 12.359375 52.855469 12.601562 "/>
<path style=" stroke:none;fill-rule:nonzero;fill:rgb(29.40979%,63.919067%,65.098572%);fill-opacity:1;" d="M 53.429688 10.390625 L 53.425781 10.390625 L 51.964844 9.425781 C 51.945312 9.382812 51.917969 9.339844 51.894531 9.296875 L 54.484375 4.757812 L 55.109375 5.378906 C 55.105469 5.382812 55.105469 5.386719 55.105469 5.386719 C 54.375 6.960938 53.878906 8.671875 53.429688 10.390625 "/>
<path style=" stroke:none;fill-rule:nonzero;fill:rgb(89.7995%,66.668701%,8.239746%);fill-opacity:1;" d="M 55.992188 19.144531 L 55.605469 18.757812 L 55.597656 14.929688 L 55.871094 15.058594 C 55.910156 15.074219 56.359375 15.277344 56.902344 15.277344 C 57.417969 15.277344 58.015625 15.09375 58.417969 14.390625 C 58.753906 13.792969 58.785156 13.214844 58.507812 12.710938 C 58.191406 12.140625 57.503906 11.75 56.757812 11.714844 C 56.738281 11.714844 56.714844 11.710938 56.695312 11.710938 C 55.886719 11.710938 55.28125 12.394531 55.273438 12.402344 L 55.164062 12.527344 L 52.449219 10.726562 C 52.394531 10.527344 52.332031 10.332031 52.269531 10.144531 L 55.101562 12.027344 C 55.347656 11.796875 55.9375 11.328125 56.695312 11.328125 C 56.722656 11.328125 56.75 11.328125 56.777344 11.328125 C 57.652344 11.367188 58.464844 11.839844 58.847656 12.523438 C 59.1875 13.140625 59.15625 13.871094 58.753906 14.578125 C 58.640625 14.78125 58.511719 14.949219 58.375 15.082031 C 57.929688 15.527344 57.390625 15.65625 56.914062 15.65625 C 56.539062 15.65625 56.207031 15.578125 55.984375 15.507812 L 55.992188 19.144531 "/>
<path style=" stroke:none;fill-rule:nonzero;fill:rgb(44.309998%,41.569519%,33.329773%);fill-opacity:1;" d="M 61.167969 24.308594 L 61.136719 24.277344 L 61.324219 23.949219 L 64.066406 19.132812 L 64.785156 17.875 L 65.820312 16.0625 L 65.851562 16.09375 L 61.167969 24.308594 M 51.894531 9.296875 C 51.886719 9.28125 51.878906 9.265625 51.867188 9.25 L 54.449219 4.722656 L 54.484375 4.757812 L 51.894531 9.296875 "/>
<path style=" stroke:none;fill-rule:nonzero;fill:rgb(95.289612%,40.779114%,12.548828%);fill-opacity:1;" d="M 51.59375 8.886719 C 52.667969 9.960938 53.082031 14.261719 53.082031 14.261719 C 53.082031 14.261719 48.765625 13.851562 47.691406 12.777344 C 46.613281 11.703125 46.613281 9.960938 47.691406 8.886719 C 48.769531 7.808594 50.515625 7.8125 51.59375 8.886719 "/>
<path style=" stroke:none;fill-rule:nonzero;fill:rgb(87.449646%,36.859131%,11.369324%);fill-opacity:1;" d="M 49.640625 12.949219 C 49.097656 12.949219 48.550781 12.742188 48.136719 12.332031 C 47.308594 11.5 47.308594 10.160156 48.136719 9.332031 C 48.550781 8.917969 49.097656 8.710938 49.640625 8.710938 C 50.183594 8.710938 50.730469 8.917969 51.144531 9.332031 C 51.976562 10.160156 51.976562 11.5 51.144531 12.332031 C 50.730469 12.742188 50.183594 12.949219 49.640625 12.949219 "/>
<path style=" stroke:none;fill-rule:nonzero;fill:rgb(100%,100%,100%);fill-opacity:1;" d="M 50.941406 9.535156 C 51.660156 10.25 51.660156 11.410156 50.941406 12.128906 C 50.222656 12.84375 49.058594 12.84375 48.339844 12.128906 C 47.621094 11.410156 47.621094 10.25 48.339844 9.535156 C 49.058594 8.816406 50.222656 8.816406 50.941406 9.535156 "/>
<path style=" stroke:none;fill-rule:nonzero;fill:rgb(95.289612%,40.779114%,12.548828%);fill-opacity:1;" d="M 65.292969 9.402344 C 66.367188 10.476562 66.78125 14.78125 66.78125 14.78125 C 66.78125 14.78125 62.46875 14.371094 61.390625 13.292969 C 60.3125 12.21875 60.3125 10.476562 61.390625 9.402344 C 62.46875 8.328125 64.214844 8.328125 65.292969 9.402344 "/>
<path style=" stroke:none;fill-rule:nonzero;fill:rgb(87.449646%,36.859131%,11.369324%);fill-opacity:1;" d="M 63.339844 13.46875 C 62.796875 13.46875 62.253906 13.261719 61.835938 12.847656 C 61.007812 12.019531 61.007812 10.675781 61.835938 9.851562 C 62.253906 9.433594 62.796875 9.226562 63.339844 9.226562 C 63.886719 9.226562 64.429688 9.433594 64.84375 9.851562 C 65.675781 10.675781 65.675781 12.019531 64.84375 12.847656 C 64.429688 13.261719 63.886719 13.46875 63.339844 13.46875 "/>
<path style=" stroke:none;fill-rule:nonzero;fill:rgb(100%,100%,100%);fill-opacity:1;" d="M 64.640625 10.050781 C 65.359375 10.769531 65.359375 11.929688 64.640625 12.644531 C 63.921875 13.363281 62.757812 13.363281 62.039062 12.644531 C 61.320312 11.929688 61.320312 10.769531 62.039062 10.050781 C 62.757812 9.335938 63.921875 9.335938 64.640625 10.050781 "/>
<path style=" stroke:none;fill-rule:nonzero;fill:rgb(95.289612%,40.779114%,12.548828%);fill-opacity:1;" d="M 56.507812 20.273438 C 57.585938 21.347656 58 25.648438 58 25.648438 C 58 25.648438 53.683594 25.238281 52.605469 24.164062 C 51.527344 23.089844 51.527344 21.347656 52.605469 20.273438 C 53.683594 19.199219 55.429688 19.199219 56.507812 20.273438 "/>
<path style=" stroke:none;fill-rule:nonzero;fill:rgb(87.449646%,36.859131%,11.369324%);fill-opacity:1;" d="M 54.558594 24.339844 C 54.011719 24.339844 53.46875 24.132812 53.054688 23.71875 C 52.222656 22.890625 52.222656 21.546875 53.054688 20.71875 C 53.46875 20.304688 54.011719 20.097656 54.558594 20.097656 C 55.101562 20.097656 55.644531 20.304688 56.0625 20.71875 C 56.890625 21.546875 56.890625 22.890625 56.0625 23.71875 C 55.644531 24.132812 55.101562 24.339844 54.558594 24.339844 "/>
<path style=" stroke:none;fill-rule:nonzero;fill:rgb(100%,100%,100%);fill-opacity:1;" d="M 55.859375 20.921875 C 56.578125 21.636719 56.574219 22.796875 55.859375 23.515625 C 55.140625 24.230469 53.976562 24.230469 53.257812 23.515625 C 52.539062 22.796875 52.539062 21.636719 53.257812 20.921875 C 53.976562 20.203125 55.140625 20.203125 55.859375 20.921875 "/>
</g>
</svg>
