<svg id="Camada_1" data-name="Camada 1" xmlns="http://www.w3.org/2000/svg" viewBox="0 0 1500 554.13"><defs><style>.cls-1{fill:#132584;}</style></defs><path class="cls-1" d="M242,410.05c-47.26,0-85.71-59.66-85.71-133s38.45-133,85.71-133,85.72,59.66,85.72,133S289.28,410.05,242,410.05Zm0-260.56c-44.28,0-80.3,57.23-80.3,127.57s36,127.58,80.3,127.58,80.3-57.23,80.3-127.58S286.3,149.49,242,149.49Z"/><path class="cls-1" d="M242,410.05c-73.33,0-133-59.66-133-133s59.66-133,133-133,133,59.66,133,133S315.35,410.05,242,410.05Zm0-260.56A127.58,127.58,0,1,0,369.6,277.06,127.72,127.72,0,0,0,242,149.49Z"/><rect class="cls-1" x="239.31" y="146.78" width="5.41" height="260.56"/><rect class="cls-1" x="111.74" y="274.36" width="260.56" height="5.41"/><rect class="cls-1" x="138.53" y="198.87" width="212.39" height="5.41"/><rect class="cls-1" x="135.82" y="349.84" width="212.39" height="5.41"/><path class="cls-1" d="M103.24,368.3a165.16,165.16,0,0,1-28.09-92.42c0-91.53,74.46-166,166-166a164.56,164.56,0,0,1,69.45,15.19L308.31,130a159.33,159.33,0,0,0-67.18-14.68c-88.54,0-160.57,72-160.57,160.57a159.75,159.75,0,0,0,27.18,89.4Z"/><circle class="cls-1" cx="105.41" cy="373.06" r="17.82"/><path class="cls-1" d="M242.91,444.23a164.65,164.65,0,0,1-69.44-15.18l2.26-4.92a159.19,159.19,0,0,0,67.18,14.69c88.54,0,160.57-72,160.57-160.57a159.85,159.85,0,0,0-27.17-89.41l4.49-3a165.19,165.19,0,0,1,28.09,92.43C408.89,369.77,334.44,444.23,242.91,444.23Z"/><circle class="cls-1" cx="378.63" cy="181.06" r="17.82"/><path class="cls-1" d="M467.79,315.49a58.7,58.7,0,0,1-22.45-21.94,64.3,64.3,0,0,1,0-62.88,58.68,58.68,0,0,1,22.45-21.93,64.67,64.67,0,0,1,32-8A67.12,67.12,0,0,1,524,205a49.91,49.91,0,0,1,18.83,12.53l-5.53,5.7q-14.51-14.34-37.14-14.34a55.94,55.94,0,0,0-27.64,6.91A50.65,50.65,0,0,0,453,234.91a55.81,55.81,0,0,0,0,54.41,50.65,50.65,0,0,0,19.52,19.09,55.94,55.94,0,0,0,27.64,6.91q22.45,0,37.14-14.51l5.53,5.7a50.55,50.55,0,0,1-18.92,12.61,66,66,0,0,1-24.09,4.32A64.67,64.67,0,0,1,467.79,315.49Z"/><path class="cls-1" d="M636.65,314.63v7.94H553.21V201.65h80.85v7.95H562v47.68h64.43v7.77H562v49.58Z"/><path class="cls-1" d="M733.55,322.57,704.7,282.15A87.5,87.5,0,0,1,693,283H658.41v39.55H649.6V201.65H693q22.8,0,35.76,10.8t12.95,30q0,14.34-7.34,24.1t-21,13.73l30.23,42.32ZM693,275.24q19.34,0,29.54-8.55t10.19-24.27q0-15.72-10.19-24.27T693,209.6H658.41v65.64Z"/><path class="cls-1" d="M766.46,310.14q-12.71-13.31-12.7-38.87V201.65h8.81v69.27q0,22.29,10.19,33.34t29.54,11.06q19.17,0,29.37-11.06t10.19-33.34V201.65h8.81v69.62q0,25.56-12.78,38.87t-35.76,13.3Q779.15,323.44,766.46,310.14Z"/><path class="cls-1" d="M956.56,322.57l-28.85-40.42A87.64,87.64,0,0,1,916,283H881.42v39.55h-8.81V201.65H916q22.81,0,35.76,10.8t13,30q0,14.34-7.35,24.1t-21,13.73l30.23,42.32ZM916,275.24q19.35,0,29.54-8.55t10.19-24.27q0-15.72-10.19-24.27T916,209.6H881.42v65.64Z"/><path class="cls-1" d="M1069.44,270.41q6.82,7.77,6.82,20.21,0,15.38-11.22,23.66t-33.34,8.29H977.8V201.65h50.44q19.69,0,30.66,8t11,22.88q0,10.37-5.44,17.45a30,30,0,0,1-14.77,10.19Q1062.62,262.64,1069.44,270.41Zm-82.83-61.15v48.19h41.29q15.88,0,24.44-6.13t8.55-18q0-11.75-8.55-17.88t-24.44-6.13Zm71.78,99.58q9.06-6.13,9.07-18.92t-9.07-18.82q-9.08-6-26.69-6.05H986.61V315h45.09Q1049.31,315,1058.39,308.84Z"/><path class="cls-1" d="M1172.74,212.62q12.69,10.8,12.7,33.17t-13,32.73q-13,10.37-39.81,10.37h-16.07v33.68h-27V201.83h42.67Q1160,201.83,1172.74,212.62ZM1153,260.13q4.83-5.44,4.84-15.89t-6.31-14.86q-6.3-4.41-19.6-4.41h-15.38v40.6h18.14Q1148.12,265.57,1153,260.13Z"/><path class="cls-1" d="M1291.5,241.9q0,29-23,37.49l30.58,43.18h-33.17l-26.77-38.52H1220.5v38.52h-27V201.83h45.78q28.15,0,40.16,9.5T1291.5,241.9ZM1259,256.24q5-4.49,5-14.25t-5.18-13.39q-5.19-3.63-18.14-3.63H1220.5v35.76h19.69Q1254,260.73,1259,256.24Z"/><path class="cls-1" d="M1406.54,305.9q-18.32,17.88-45.08,17.88t-45.09-17.88q-18.31-17.88-18.31-44.48t18.31-44.48q18.32-17.88,45.09-17.88t45.08,17.88q18.32,17.88,18.31,44.48T1406.54,305.9Zm-9.15-44.39q0-16.15-10.37-27.55a34.18,34.18,0,0,0-51,0q-10.36,11.4-10.36,27.55T1336.06,289a34.36,34.36,0,0,0,51,0Q1397.39,277.65,1397.39,261.51Z"/><path class="cls-1" d="M453.43,391.74a16.93,16.93,0,0,1-6.53-6.31,18.48,18.48,0,0,1,0-18.11,16.81,16.81,0,0,1,6.56-6.31,19.18,19.18,0,0,1,9.37-2.29,19.65,19.65,0,0,1,7.4,1.35,15.25,15.25,0,0,1,5.72,4l-3.2,3.11a12.87,12.87,0,0,0-9.72-4.09,14.11,14.11,0,0,0-7,1.72,12.63,12.63,0,0,0-4.86,4.76,14,14,0,0,0,0,13.57,12.56,12.56,0,0,0,4.86,4.76,14.12,14.12,0,0,0,7,1.73,12.91,12.91,0,0,0,9.72-4.15l3.2,3.11a15.4,15.4,0,0,1-5.74,4,19.5,19.5,0,0,1-7.43,1.38A19.07,19.07,0,0,1,453.43,391.74Z"/><path class="cls-1" d="M504.36,389.35v4.29H479.31V359.11h24.36v4.29H484.24V374h17.31v4.19H484.24v11.15Z"/><path class="cls-1" d="M538.35,359.11v34.53h-4l-20.72-25.75v25.75h-4.93V359.11h4l20.72,25.75V359.11Z"/><path class="cls-1" d="M551.87,363.4H540v-4.29h28.56v4.29H556.75v30.24h-4.88Z"/><path class="cls-1" d="M593.35,393.64,585.9,383c-.92.07-1.64.1-2.17.1H575.2v10.51h-4.94V359.11h13.47q6.71,0,10.56,3.21a10.89,10.89,0,0,1,3.84,8.83,11.49,11.49,0,0,1-2,6.8,11.14,11.14,0,0,1-5.62,4.1l8.19,11.59Zm-2.62-16.72a8,8,0,0,0,0-11.52q-2.46-2-7.15-2H575.2v15.54h8.38Q588.28,378.94,590.73,376.92Z"/><path class="cls-1" d="M624.43,385H606.08l-3.8,8.63H597.2l15.63-34.53h4.89l15.68,34.53h-5.18Zm-1.73-3.95-7.45-16.92-7.45,16.92Z"/><path class="cls-1" d="M634.83,359.11h4.94v30.24h18.69v4.29H634.83Z"/><path class="cls-1" d="M670,359.11h14.55a21,21,0,0,1,9.72,2.17,16,16,0,0,1,6.59,6.09,18.5,18.5,0,0,1,0,18,16,16,0,0,1-6.59,6.09,21,21,0,0,1-9.72,2.17H670Zm14.26,30.24a15.91,15.91,0,0,0,7.37-1.63,11.78,11.78,0,0,0,4.91-4.56,14.17,14.17,0,0,0,0-13.57,11.84,11.84,0,0,0-4.91-4.56,15.91,15.91,0,0,0-7.37-1.63h-9.32v26Z"/><path class="cls-1" d="M732.1,389.35v4.29H707.05V359.11h24.36v4.29H712V374h17.31v4.19H712v11.15Z"/><path class="cls-1" d="M769.05,393.64,761.6,383c-.92.07-1.64.1-2.17.1H750.9v10.51H746V359.11h13.47q6.71,0,10.56,3.21a10.89,10.89,0,0,1,3.84,8.83,11.49,11.49,0,0,1-2,6.8,11.14,11.14,0,0,1-5.62,4.1l8.19,11.59Zm-2.61-16.72a8,8,0,0,0,0-11.52c-1.65-1.33-4-2-7.16-2H750.9v15.54h8.38C762.41,378.94,764.79,378.27,766.44,376.92Z"/><path class="cls-1" d="M803.18,389.35v4.29h-25V359.11h24.36v4.29H783.06V374h17.31v4.19H783.06v11.15Z"/><path class="cls-1" d="M831.25,376.18H836v13.47a18.51,18.51,0,0,1-6,3.25,22.22,22.22,0,0,1-7.1,1.13,19.33,19.33,0,0,1-9.43-2.29,17,17,0,0,1-6.58-6.31,18.39,18.39,0,0,1,0-18.13,16.66,16.66,0,0,1,6.61-6.31,19.61,19.61,0,0,1,9.49-2.27,20.15,20.15,0,0,1,7.53,1.35,15.46,15.46,0,0,1,5.74,4l-3.06,3.06a13.9,13.9,0,0,0-10-4,14.54,14.54,0,0,0-7.08,1.7,12.48,12.48,0,0,0-4.91,4.73,13.33,13.33,0,0,0-1.77,6.84,13.19,13.19,0,0,0,1.77,6.78,12.69,12.69,0,0,0,4.91,4.76,14.33,14.33,0,0,0,7,1.73,14.71,14.71,0,0,0,8.09-2.22Z"/><path class="cls-1" d="M845.26,390.09q-3.84-3.94-3.85-11.35V359.11h4.94v19.44q0,11.08,9.71,11.1c3.16,0,5.58-.92,7.25-2.74s2.52-4.62,2.52-8.36V359.11h4.78v19.63q0,7.45-3.84,11.37T856,394Q849.11,394,845.26,390.09Z"/><path class="cls-1" d="M877,359.11H882v30.24h18.69v4.29H877Z"/><path class="cls-1" d="M924.77,385H906.42l-3.79,8.63h-5.09l15.64-34.53h4.88l15.69,34.53h-5.18Zm-1.72-3.95-7.45-16.92-7.45,16.92Z"/><path class="cls-1" d="M958.27,393.64,950.82,383c-.92.07-1.65.1-2.17.1h-8.54v10.51h-4.93V359.11h13.47q6.71,0,10.55,3.21a10.86,10.86,0,0,1,3.85,8.83,11.56,11.56,0,0,1-2,6.8,11.18,11.18,0,0,1-5.62,4.1l8.18,11.59Zm-2.62-16.72a8,8,0,0,0,0-11.52c-1.64-1.33-4-2-7.15-2h-8.39v15.54h8.39C951.62,378.94,954,378.27,955.65,376.92Z"/><path class="cls-1" d="M967.34,359.11h4.93v34.53h-4.93Z"/><path class="cls-1" d="M1004.73,389.35v4.29H975.88v-3.35l21.7-26.89H976.22v-4.29h27.87v3.36l-21.61,26.88Z"/><path class="cls-1" d="M1029.64,385h-18.35l-3.8,8.63h-5.08l15.64-34.53h4.88l15.69,34.53h-5.18Zm-1.72-3.95-7.45-16.92L1013,381.06Z"/><path class="cls-1" d="M1045.65,391.74a16.89,16.89,0,0,1-6.54-6.31,18.55,18.55,0,0,1,0-18.11,16.87,16.87,0,0,1,6.56-6.31,19.2,19.2,0,0,1,9.37-2.29,19.61,19.61,0,0,1,7.4,1.35,15.28,15.28,0,0,1,5.73,4L1065,367.2a12.87,12.87,0,0,0-9.72-4.09,14.07,14.07,0,0,0-7,1.72,12.63,12.63,0,0,0-4.86,4.76,14,14,0,0,0,0,13.57,12.56,12.56,0,0,0,4.86,4.76,14.08,14.08,0,0,0,7,1.73,12.91,12.91,0,0,0,9.72-4.15l3.21,3.11a15.43,15.43,0,0,1-5.75,4A19.45,19.45,0,0,1,1055,394,19,19,0,0,1,1045.65,391.74Zm2.93,11.86,1-2.41a6.67,6.67,0,0,0,3.35.84c1.84,0,2.77-.66,2.77-2a1.66,1.66,0,0,0-.7-1.4,3.48,3.48,0,0,0-2.12-.52h-1.33l1.24-4.84h2.71l-.74,2.82a5,5,0,0,1,3.18,1.3,3.78,3.78,0,0,1,1.11,2.79,3.84,3.84,0,0,1-1.68,3.28,7.41,7.41,0,0,1-4.44,1.21A8.39,8.39,0,0,1,1048.58,403.6Z"/><path class="cls-1" d="M1092.68,385h-18.35l-3.8,8.63h-5.08l15.64-34.53H1086l15.69,34.53h-5.18ZM1085,355.66a19.85,19.85,0,0,1-2.14-1.48,7.58,7.58,0,0,0-1.29-1,2,2,0,0,0-1.08-.32,2.24,2.24,0,0,0-1.78.81,3.59,3.59,0,0,0-.74,2.24h-2.66a7.11,7.11,0,0,1,1.41-4.38,4.16,4.16,0,0,1,3.42-1.63,4.24,4.24,0,0,1,2.1.51,15.1,15.1,0,0,1,2.1,1.51,15.16,15.16,0,0,0,1.33,1,1.81,1.81,0,0,0,1,.32,2.24,2.24,0,0,0,1.78-.79,3.35,3.35,0,0,0,.74-2.17h2.66a7,7,0,0,1-1.4,4.27,4.21,4.21,0,0,1-3.43,1.6A4.07,4.07,0,0,1,1085,355.66Zm6,25.4-7.45-16.92-7.45,16.92Z"/><path class="cls-1" d="M1108.76,391.74a16.93,16.93,0,0,1-6.58-6.34,18.23,18.23,0,0,1,0-18,16.93,16.93,0,0,1,6.58-6.34,20.44,20.44,0,0,1,18.8,0,16.87,16.87,0,0,1,6.56,6.31,18.48,18.48,0,0,1,0,18.11,16.87,16.87,0,0,1-6.56,6.31,20.44,20.44,0,0,1-18.8,0Zm16.26-3.82a12.7,12.7,0,0,0,4.78-4.76,14,14,0,0,0,0-13.57,12.77,12.77,0,0,0-4.78-4.76,13.6,13.6,0,0,0-6.84-1.72,13.86,13.86,0,0,0-6.88,1.72,12.69,12.69,0,0,0-4.83,4.76,14,14,0,0,0,0,13.57,12.62,12.62,0,0,0,4.83,4.76,13.87,13.87,0,0,0,6.88,1.73A13.61,13.61,0,0,0,1125,387.92Z"/><path class="cls-1" d="M1154.83,363.4v12h17.32v4.24h-17.32v14h-4.93V359.11h24.37v4.29Z"/><path class="cls-1" d="M1181.08,390.09q-3.86-3.94-3.85-11.35V359.11h4.93v19.44q0,11.08,9.72,11.1c3.16,0,5.57-.92,7.25-2.74s2.51-4.62,2.51-8.36V359.11h4.79v19.63q0,7.45-3.85,11.37T1191.83,394Q1184.92,394,1181.08,390.09Z"/><path class="cls-1" d="M1242.54,359.11v34.53h-4l-20.72-25.75v25.75h-4.93V359.11h4.05l20.71,25.75V359.11Z"/><path class="cls-1" d="M1249.2,359.11h14.55a21,21,0,0,1,9.71,2.17,16,16,0,0,1,6.59,6.09,18.5,18.5,0,0,1,0,18,16,16,0,0,1-6.59,6.09,21,21,0,0,1-9.71,2.17H1249.2Zm14.25,30.24a16,16,0,0,0,7.38-1.63,11.75,11.75,0,0,0,4.9-4.56,14.17,14.17,0,0,0,0-13.57,11.81,11.81,0,0,0-4.9-4.56,16,16,0,0,0-7.38-1.63h-9.32v26Z"/><path class="cls-1" d="M1286.24,359.11h4.93v34.53h-4.93Z"/><path class="cls-1" d="M1319.83,385h-18.35l-3.8,8.63h-5.08l15.64-34.53h4.88l15.69,34.53h-5.18Zm-1.73-3.95-7.45-16.92-7.44,16.92Zm-4.39-31.17h6l-8.29,6.41H1307Z"/><path class="cls-1" d="M1353.32,393.64,1345.88,383c-.93.07-1.65.1-2.18.1h-8.53v10.51h-4.93V359.11h13.46q6.72,0,10.56,3.21a10.86,10.86,0,0,1,3.85,8.83,11.5,11.5,0,0,1-2,6.8,11.14,11.14,0,0,1-5.62,4.1l8.19,11.59Zm-2.61-16.72a8,8,0,0,0,0-11.52q-2.48-2-7.15-2h-8.39v15.54h8.39Q1348.24,378.94,1350.71,376.92Z"/><path class="cls-1" d="M1362.4,359.11h4.93v34.53h-4.93Z"/><path class="cls-1" d="M1396,385h-18.35l-3.8,8.63h-5.08l15.64-34.53h4.88L1405,393.64h-5.18Zm-1.73-3.95-7.45-16.92-7.44,16.92Z"/></svg>